<?xml version="1.0" encoding="iso-8859-1"?>
<!-- Generator: Adobe Illustrator 18.0.0, SVG Export Plug-In . SVG Version: 6.00 Build 0)  -->
<!DOCTYPE svg PUBLIC "-//W3C//DTD SVG 1.1//EN" "http://www.w3.org/Graphics/SVG/1.1/DTD/svg11.dtd">
<svg xmlns="http://www.w3.org/2000/svg" xmlns:xlink="http://www.w3.org/1999/xlink" version="1.1" id="Capa_1" x="0px" y="0px" viewBox="0 0 429.485 429.485" style="enable-background:new 0 0 429.485 429.485;" xml:space="preserve" width="512px" height="512px">
<path d="M350.386,90.612c-10.872-8.26-31.67-14.734-61.85-19.26c-0.117-7.303,2.684-13.002,8.498-17.346  c1.836-1.373,2.588-3.768,1.864-5.943c-0.723-2.176-2.758-3.643-5.051-3.643H135.637c-2.124,0-4.044,1.262-4.887,3.211  c-0.842,1.951-0.444,4.215,1.012,5.76c5.397,5.73,8.357,11.773,8.834,18.014c-30,4.529-50.679,10.986-61.495,19.207  c-30.136,22.892-64.479,123.836-79.016,204.23c-0.263,1.451,0.089,2.945,0.971,4.129c0.881,1.182,2.214,1.945,3.68,2.107  l59.936,6.65c2.801,0.318,5.354-1.611,5.832-4.387c11.275-65.518,33.073-108.346,44.891-127.832  c3.343,38.959,10.81,144.764-0.717,203.201c-0.309,1.563,0.099,3.182,1.11,4.41c1.011,1.23,2.519,1.943,4.111,1.943h189.688  c0.004,0,0.012,0,0.02,0c2.94,0,5.323-2.383,5.323-5.322c0-0.516-0.073-1.014-0.21-1.484c-11.4-58.533-3.957-163.943-0.625-202.777  c11.81,19.434,33.584,62.178,44.89,127.861c0.478,2.775,3.04,4.703,5.832,4.387l59.934-6.65c1.466-0.162,2.799-0.926,3.68-2.107  c0.882-1.184,1.233-2.678,0.971-4.129C414.862,214.447,380.52,113.504,350.386,90.612z M214.742,101.457  c-17.969-5.744-33.573-16.465-44.291-25.297h88.583C248.318,84.992,232.714,95.713,214.742,101.457z" fill="#647375"/>
<g>
</g>
<g>
</g>
<g>
</g>
<g>
</g>
<g>
</g>
<g>
</g>
<g>
</g>
<g>
</g>
<g>
</g>
<g>
</g>
<g>
</g>
<g>
</g>
<g>
</g>
<g>
</g>
<g>
</g>
</svg>
